<?xml version="1.0" standalone="no"?>
<!DOCTYPE svg PUBLIC "-//W3C//DTD SVG 20010904//EN"
 "http://www.w3.org/TR/2001/REC-SVG-20010904/DTD/svg10.dtd">
<svg version="1.0" xmlns="http://www.w3.org/2000/svg"
 width="1024.000000pt" height="952.000000pt" viewBox="0 0 1024.000000 952.000000"
 preserveAspectRatio="xMidYMid meet">

<g transform="translate(0.000000,952.000000) scale(0.100000,-0.100000)"
fill="#000000" stroke="none">
<path d="M3203 9505 c-35 -8 -85 -26 -113 -41 -59 -32 -149 -123 -179 -182
-51 -101 -51 -92 -51 -1029 l0 -873 -102 -1 c-57 -1 -627 -4 -1268 -8 l-1165
-6 -65 -31 c-138 -66 -229 -189 -250 -339 -13 -94 -13 -4385 0 -4477 21 -142
107 -261 238 -325 l76 -38 835 -6 c460 -4 923 -7 1029 -8 l192 -1 0 -355 0
-355 1358 0 c1117 0 1366 3 1408 14 124 33 229 123 294 252 l35 69 5 492 5
492 70 -41 c39 -22 108 -61 155 -86 150 -80 677 -387 2470 -1437 965 -565
1779 -1041 1807 -1057 l53 -30 30 24 c79 62 144 185 161 308 6 38 8 905 7
2110 -3 1974 -4 2046 -22 2080 -10 19 -28 46 -40 58 -18 21 -396 252 -411 252
-3 0 -5 -119 -5 -264 l0 -264 -526 -296 -526 -296 -544 0 -544 0 0 1070 0
1070 -1070 0 -1070 0 0 523 c0 440 -2 532 -16 582 -26 104 -88 190 -175 247
l-49 31 0 379 0 378 2260 0 2260 0 0 524 c0 496 -1 527 -20 589 -41 133 -137
236 -269 289 l-56 23 -3075 2 c-2563 1 -3085 -1 -3137 -12z m-243 -3230 c488
-107 826 -405 990 -870 79 -226 112 -489 93 -743 -56 -708 -427 -1197 -1031
-1353 -161 -41 -278 -53 -472 -46 -238 9 -398 47 -597 144 -241 117 -455 329
-578 573 -225 446 -232 1034 -18 1534 177 413 552 692 1039 771 121 19 468 14
574 -10z"/>
<path d="M2434 5771 c-178 -44 -344 -162 -451 -321 -110 -164 -176 -415 -175
-675 0 -270 64 -512 182 -685 52 -75 162 -179 239 -224 120 -70 196 -89 367
-94 130 -3 163 -1 234 17 265 67 454 253 543 537 48 153 61 245 61 439 0 194
-12 288 -59 450 -84 290 -276 490 -533 556 -99 25 -305 25 -408 0z"/>
</g>
</svg>
